<?xml version="1.0" encoding="utf-8"?>
<!-- Generator: Adobe Illustrator 19.2.0, SVG Export Plug-In . SVG Version: 6.00 Build 0)  -->
<svg version="1.1" id="Low_1_" xmlns="http://www.w3.org/2000/svg" xmlns:xlink="http://www.w3.org/1999/xlink" x="0px" y="0px"
	 viewBox="0 0 64 64" style="enable-background:new 0 0 64 64;" xml:space="preserve">
<style type="text/css">
	.st0{fill:#939393;}
</style>
<path class="st0" d="M56.7,35.7L56.7,35.7c0.6-2.2-0.7-4.3-2.9-4.9l-20.2-5.3c-2.2-0.6-4.3,0.7-4.9,2.9l0,0
	c-0.6,2.2,0.7,4.3,2.9,4.9l20.2,5.4C54,39.1,56.1,37.8,56.7,35.7z"/>
<path class="st0" d="M7.3,35.8L7.3,35.8c-0.6-2.2,0.6-4.4,2.8-5l20.1-5.4c2.2-0.6,4.4,0.6,5,2.8l0,0c0.6,2.2-0.6,4.4-2.8,5
	l-20.1,5.4C10.1,39.2,7.9,38,7.3,35.8z"/>
</svg>
