<?xml version="1.0" encoding="utf-8"?>
<!-- Generator: Adobe Illustrator 19.2.0, SVG Export Plug-In . SVG Version: 6.00 Build 0)  -->
<svg version="1.1" id="Low_1_" xmlns="http://www.w3.org/2000/svg" xmlns:xlink="http://www.w3.org/1999/xlink" x="0px" y="0px"
	 viewBox="0 0 64 64" style="enable-background:new 0 0 64 64;" xml:space="preserve">
<style type="text/css">
	.st0{fill:#2A8735;}
</style>
<path class="st0" d="M49.7,42.2L49.7,42.2c1.6-1.6,1.6-4.1,0-5.7L34.9,21.8c-1.6-1.6-4.1-1.6-5.7,0l0,0c-1.6,1.6-1.6,4.1,0,5.7
	L44,42.3C45.6,43.8,48.1,43.8,49.7,42.2z"/>
<path class="st0" d="M14.3,42.2L14.3,42.2c-1.6-1.6-1.6-4.1,0-5.7l14.8-14.7c1.6-1.6,4.1-1.6,5.7,0l0,0c1.6,1.6,1.6,4.1,0,5.7
	L20,42.2C18.4,43.8,15.9,43.8,14.3,42.2z"/>
</svg>
