<?xml version="1.0" encoding="utf-8"?>
<!-- Generator: Adobe Illustrator 19.2.0, SVG Export Plug-In . SVG Version: 6.00 Build 0)  -->
<svg version="1.1" id="Low_1_" xmlns="http://www.w3.org/2000/svg" xmlns:xlink="http://www.w3.org/1999/xlink" x="0px" y="0px"
	 viewBox="0 0 64 64" style="enable-background:new 0 0 64 64;" xml:space="preserve">
<style type="text/css">
	.st0{fill:#FF9929;}
</style>
<path class="st0" d="M31.7,47.6L31.7,47.6c2.2,0,4-1.2,4-2.8V17.2c0-1.5-1.8-2.8-4-2.8l0,0c-2.2,0-4,1.2-4,2.8v27.6
	C27.7,46.4,29.5,47.6,31.7,47.6z"/>
<path class="st0" d="M49.5,35L49.5,35c1.6-1.6,1.6-4.1,0-5.7L34.7,14.6c-1.6-1.6-4.1-1.6-5.7,0l0,0c-1.6,1.6-1.6,4.1,0,5.7
	l14.8,14.8C45.4,36.6,47.9,36.6,49.5,35z"/>
<path class="st0" d="M14.1,35L14.1,35c-1.6-1.6-1.6-4.1,0-5.7l14.8-14.7c1.6-1.6,4.1-1.6,5.7,0l0,0c1.6,1.6,1.6,4.1,0,5.7L19.8,35
	C18.2,36.6,15.7,36.6,14.1,35z"/>
</svg>
